<svg width="16" height="20" viewBox="0 0 16 20" fill="none" xmlns="http://www.w3.org/2000/svg">
<path fill-rule="evenodd" clip-rule="evenodd" d="M12.331 13.8394L15.8859 18.2892C16.0447 18.5099 16.0368 18.8479 15.8681 19.0568L15.246 19.8355C15.1626 19.9408 15.049 20 14.9305 20C14.812 20 14.6985 19.9408 14.615 19.8355L11.0601 15.3857C10.9618 15.2625 10.8726 15.1285 10.7935 14.9852L10.127 13.8727C9.02413 14.9751 7.6546 15.5753 6.24327 15.5748C3.33502 15.5874 0.807867 13.0762 0.157951 9.52789C-0.491966 5.97956 0.90881 2.3411 3.53098 0.766571C6.15315 -0.807953 9.29689 0.101681 11.101 2.95694C12.9052 5.81221 12.8882 9.85107 11.0601 12.6824L11.9489 13.45C12.0877 13.5612 12.2159 13.6918 12.331 13.8394ZM1.79972 7.78719C1.79972 10.8591 3.78919 13.3494 6.24333 13.3494C7.42185 13.3494 8.5521 12.7634 9.38544 11.7203C10.2188 10.6772 10.6869 9.26239 10.6869 7.78719C10.6869 4.71524 8.69747 2.22493 6.24333 2.22493C3.78919 2.22493 1.79972 4.71524 1.79972 7.78719Z" fill="#707070"/>
</svg>
